<?xml version="1.0" standalone="no"?>
<!DOCTYPE svg PUBLIC "-//W3C//DTD SVG 20010904//EN"
 "http://www.w3.org/TR/2001/REC-SVG-20010904/DTD/svg10.dtd">
<svg version="1.0" xmlns="http://www.w3.org/2000/svg"
 width="429.000000pt" height="165.000000pt" viewBox="0 0 429.000000 165.000000"
 preserveAspectRatio="xMidYMid meet">
<metadata>
Created by potrace 1.16, written by Peter Selinger 2001-2019
</metadata>
<g transform="translate(0.000000,165.000000) scale(0.100000,-0.100000)"
fill="#000000" stroke="none">
<path d="M1205 1599 c-146 -79 -210 -159 -270 -344 l-23 -69 -7 79 c-3 44 -7
87 -8 95 -1 9 -13 15 -27 15 -21 0 -26 -5 -28 -33 -3 -28 23 -276 31 -300 4
-14 -14 -10 -70 15 -82 38 -178 38 -255 0 -69 -34 -141 -109 -176 -185 -25
-52 -27 -68 -27 -177 0 -117 1 -122 36 -195 53 -112 99 -178 170 -246 127
-121 208 -144 307 -88 l51 29 55 -28 c102 -52 177 -32 293 77 136 127 233 318
233 461 0 71 -25 160 -63 224 -101 169 -317 218 -465 105 -18 -14 -35 -24 -36
-23 -2 2 -6 25 -8 52 l-6 48 57 34 c31 19 69 43 84 53 18 11 26 23 23 35 -4
15 -2 16 10 6 11 -9 14 -8 14 5 0 9 4 16 9 16 18 0 82 108 106 180 23 67 44
180 34 180 -2 0 -22 -10 -44 -21z"/>
<path d="M410 1287 c-13 -7 -40 -35 -60 -63 -46 -67 -111 -154 -115 -154 -1 0
0 38 2 84 3 48 1 91 -5 101 -9 17 -12 15 -27 -16 -23 -43 -24 -134 -3 -173 15
-28 14 -33 -12 -90 -15 -34 -32 -72 -37 -86 -9 -22 -11 -17 -18 43 -4 37 -11
67 -15 67 -41 0 -41 -149 -1 -175 6 -3 11 -23 12 -43 1 -30 4 -24 14 30 19 94
33 118 79 133 39 14 90 55 108 88 8 17 7 18 -14 12 -12 -4 -40 -18 -61 -32
-22 -13 -41 -22 -43 -20 -3 3 19 40 49 83 42 61 66 86 110 112 90 52 124 143
37 99z"/>
<path d="M1360 1293 c0 -24 46 -77 96 -110 40 -26 73 -60 106 -108 26 -38 48
-73 48 -77 0 -4 -25 6 -56 23 -31 16 -59 27 -61 25 -19 -19 83 -106 124 -106
27 0 37 -21 58 -115 7 -33 14 -53 14 -45 1 8 12 37 26 64 29 57 32 102 9 134
-23 33 -34 18 -34 -43 0 -30 -4 -57 -10 -60 -5 -3 -10 1 -10 10 0 8 -14 45
-30 82 -30 65 -30 68 -15 105 18 45 19 100 2 147 -27 79 -53 22 -41 -91 3 -35
4 -61 1 -58 -14 13 -137 183 -137 189 0 10 -56 41 -74 41 -9 0 -16 -3 -16 -7z"/>
<path d="M2960 1195 c0 -14 11 -37 25 -50 20 -21 34 -25 84 -25 72 0 108 14
127 51 21 41 18 49 -20 49 -26 0 -36 -5 -41 -20 -4 -14 -15 -20 -35 -20 -19 0
-33 7 -40 20 -8 15 -21 20 -55 20 -42 0 -45 -2 -45 -25z"/>
<path d="M3288 1093 c-26 -4 -28 -8 -28 -49 0 -24 5 -44 10 -44 6 0 10 -59 10
-157 0 -87 4 -163 8 -170 4 -6 27 -12 52 -14 l45 -3 -3 86 c-2 69 0 87 13 91
8 4 21 4 29 1 19 -7 46 -76 46 -117 1 -50 34 -113 70 -132 17 -9 63 -19 101
-22 l69 -6 0 29 c0 16 3 46 6 67 l7 38 65 -3 65 -3 15 -54 15 -53 40 6 c66 11
66 7 21 146 -18 57 -74 266 -74 276 0 1 16 5 35 8 32 6 35 10 35 42 l0 35
-152 -7 c-84 -4 -159 -7 -166 -7 -14 0 -26 -36 -20 -64 3 -15 11 -17 45 -15
23 2 44 -1 47 -6 3 -5 -3 -38 -13 -73 -10 -35 -26 -107 -36 -159 -22 -119 -25
-124 -51 -105 -14 9 -25 35 -34 77 -7 35 -19 75 -27 91 -13 25 -12 29 12 50
20 17 27 34 31 77 7 79 -16 121 -76 137 -44 11 -157 14 -212 6z"/>
<path d="M2630 1083 c-71 -23 -82 -51 -82 -213 0 -185 34 -230 172 -230 77 0
131 23 144 61 15 45 3 59 -53 59 -40 0 -50 -3 -54 -20 -7 -27 -54 -37 -75 -16
-24 24 -23 204 1 259 15 35 20 38 49 35 32 -3 33 -5 36 -50 l3 -48 60 0 59 0
0 39 c0 62 -19 101 -56 117 -32 13 -171 18 -204 7z"/>
<path d="M2082 1060 c-39 -37 -42 -139 -4 -190 11 -14 49 -37 87 -53 88 -35
95 -42 95 -88 0 -41 -20 -69 -49 -69 -25 0 -38 18 -46 63 l-7 37 -59 0 c-56 0
-59 -1 -59 -25 0 -34 23 -86 48 -108 44 -40 201 -30 250 15 45 43 20 176 -38
205 -14 7 -51 23 -83 34 -43 16 -61 28 -68 47 -15 39 -2 81 27 88 34 9 51 -9
59 -62 l6 -45 52 3 c52 3 52 3 55 40 4 50 -21 106 -53 118 -15 6 -63 10 -109
10 -68 0 -86 -3 -104 -20z"/>
<path d="M2402 864 c-2 -196 -1 -216 13 -210 9 3 29 6 43 6 l27 0 2 210 2 210
-42 0 -42 0 -3 -216z"/>
<path d="M2920 1025 c0 -50 2 -55 22 -55 l21 0 -6 -200 -7 -200 188 2 187 3 3
32 3 32 -138 3 -138 3 -3 50 c-2 27 -1 65 3 82 l6 33 64 0 c79 0 95 6 95 35 0
21 -6 23 -75 30 -46 4 -75 11 -75 18 0 7 3 29 6 50 l7 37 67 0 c73 0 80 5 80
60 0 16 -7 30 -16 34 -9 3 -78 6 -155 6 l-139 0 0 -55z"/>
<path d="M198 815 c-14 -14 -31 -39 -38 -55 -7 -17 -17 -30 -22 -30 -6 0 -9
-27 -6 -69 l4 -68 -46 48 c-50 53 -76 64 -65 27 15 -48 48 -87 90 -108 25 -12
45 -29 45 -38 0 -8 3 -13 6 -10 3 3 -2 30 -10 59 -19 64 -20 105 -3 116 22 14
54 66 66 107 6 22 9 41 7 43 -2 2 -14 -8 -28 -22z"/>
<path d="M1748 658 c-18 -18 -40 -44 -49 -57 -15 -24 -15 -24 -12 15 2 26 -3
15 -16 -34 -23 -91 -36 -106 -37 -44 0 26 -7 58 -14 71 -11 22 -13 23 -22 7
-10 -18 -6 -127 7 -176 6 -24 -31 -95 -88 -172 -17 -23 -17 -23 -11 17 3 22 8
48 11 58 2 9 -1 17 -7 17 -15 0 -48 -77 -55 -129 -5 -43 -28 -70 -98 -115
l-29 -19 21 41 c12 23 21 49 21 58 0 30 -59 -35 -72 -79 -7 -23 -22 -44 -37
-53 l-26 -15 25 7 c14 3 49 19 78 36 30 16 66 28 80 27 59 -4 88 2 117 27 l30
25 -62 -4 -62 -5 61 74 c50 61 66 74 90 74 52 0 118 49 118 87 0 19 -22 16
-73 -11 l-45 -25 24 47 c13 26 32 68 43 95 11 26 26 47 32 47 23 0 81 53 95
86 27 64 13 71 -38 22z"/>
<path d="M202 605 c-7 -14 -12 -49 -12 -78 0 -37 -3 -48 -10 -37 -21 32 -8 -8
20 -64 17 -32 30 -60 30 -62 0 -1 -19 8 -42 21 -41 23 -78 32 -78 19 0 -3 8
-19 17 -35 20 -33 68 -59 111 -59 21 0 35 -8 48 -27 9 -15 38 -49 62 -76 l45
-48 -44 6 c-24 4 -49 8 -55 10 -6 2 -17 -1 -24 -5 -10 -6 -4 -14 21 -29 31
-19 74 -26 122 -21 10 1 49 -15 87 -34 37 -20 74 -36 81 -36 8 1 -1 7 -18 15
-20 9 -33 21 -33 33 0 10 -13 39 -30 65 -47 74 -65 55 -24 -25 20 -38 18 -41
-13 -21 -54 33 -93 76 -93 103 0 36 -28 116 -46 131 -12 9 -14 6 -14 -19 0
-17 5 -43 10 -59 l10 -28 -24 28 c-14 15 -42 55 -62 89 -34 59 -35 65 -24 97
14 37 15 150 2 163 -5 5 -14 -3 -20 -17z"/>
<path d="M4208 552 c-10 -2 -18 -8 -18 -13 0 -5 -443 -9 -1130 -9 -998 0
-1130 -2 -1130 -15 0 -13 132 -15 1125 -15 986 0 1129 -2 1149 -15 21 -14 23
-14 33 8 14 29 -4 65 -29 59z"/>
</g>
</svg>
